<?xml version="1.0" encoding="utf-8"?>
<svg viewBox="-65.381 -13.098 536.87 535.98" xmlns="http://www.w3.org/2000/svg" xmlns:bx="https://boxy-svg.com">
  <path style="fill: rgb(243, 137, 192); stroke: rgb(236, 129, 190);" d="M 207.058 38.893 L 233.272 43.004 C 233.272 43.004 245.913 48.108 256.876 47.234 C 274.835 45.801 280.646 41.022 280.646 41.022 C 280.646 41.022 289.718 39.872 299.098 43.31 C 305.381 45.612 308.316 55.339 308.316 55.339 L 305.035 73.587 L 296.905 96.69 L 282.93 112.285 C 282.93 112.285 268.115 121.676 261.013 125.614 C 252.264 130.464 247.609 135.521 239.006 139.665 C 230.404 143.809 216.244 144.282 208.827 137.203 C 204.243 132.827 197.871 124.255 196.683 122.267 C 195.495 120.281 187.655 106.368 183.495 102.396 C 179.333 98.424 173.063 85.977 171.91 82.473 C 169.27 74.445 167.906 67.501 166.445 63.242 C 164.984 58.982 165.136 55.631 166.012 44.921 C 166.889 34.21 178.29 29.271 178.29 29.271 C 178.29 29.271 186.187 29.697 191.535 29.697 C 196.886 29.697 204.118 35.364 207.058 38.893 Z"/>
  <path style="fill: rgb(243, 137, 192); stroke: rgb(243, 137, 192);" d="M 228.873 131.225 C 228.873 131.225 237.874 133.856 238.544 133.856 C 238.891 133.856 245.635 136.401 247.808 137.415 C 250.757 137.227 255.296 141.411 258.121 141.833 C 262.001 142.413 263.123 145.262 267.991 147.218 C 275.343 150.172 275.032 151.149 284.2 156.529 C 292.875 161.62 298.457 171.249 303.713 177.709 C 308.075 183.07 309.788 191.296 312.707 196.573 C 315.437 201.508 318.618 209.411 320.805 214.02 C 322.867 218.364 324.991 226.388 324.842 230.798 C 324.699 235.073 329.675 245.433 329.389 250.609 C 329.01 257.454 333.145 268.552 334.362 278.726 C 335.85 291.161 331.886 270.674 340.107 292.141 C 341.58 295.987 350.35 301.605 341.679 308.319 C 339.52 309.992 333.925 312.363 330.864 312.97 C 327.397 313.658 325.566 314.159 318.961 313.86 C 313.782 313.625 317.282 305.17 316.204 299.594 C 315.466 295.776 312.683 290.094 311.727 286.639 C 310.682 282.865 304.824 266.578 305.275 261.738 C 305.808 256.02 302.051 248.599 299.079 241.184 C 294.997 230.998 294.773 228.594 290.451 218.236 C 287.427 210.99 286.809 204.409 283.826 197.222 C 283.48 196.388 281.249 188.539 276.612 180.447 C 271.15 170.915 259.228 164.019 258.095 163.282 C 258.105 165.06 261.165 172.079 264.731 181.404 C 267.56 188.801 270.995 198.391 271.436 202.711 C 272.583 213.949 273.811 225.019 273.811 225.515 C 273.811 226.642 275.943 244.614 275.076 254.318 C 274.31 262.895 269.656 278.4 269.656 278.4 C 269.656 278.4 247.321 281.77 246.315 281.77 C 245.308 281.77 213.554 281.072 212.883 281.072 C 212.212 281.072 192.707 275.536 192.707 275.536 C 192.707 275.536 190.937 264.898 188.568 252.37 C 187.272 245.522 187.496 235.118 187.784 227.585 C 188.07 220.096 188.932 210.313 188.932 210.313 L 192.165 195.932 L 194.416 186.337 C 193.872 186.686 194.892 180.938 196.014 174.941 C 197.238 168.408 198.583 161.581 198.16 162.023 C 197.108 163.121 194.252 167.975 191.404 172.924 C 188.291 178.333 185.188 183.857 184.455 184.72 C 183.444 185.911 178.649 193.421 177.976 194.915 C 176.907 197.287 170.886 209.326 169.368 214.386 C 167.155 221.766 167.614 225.907 164.59 234.399 C 162.091 241.413 161.461 245.386 158.704 252.942 C 155.881 260.682 155.432 266.477 155.038 274.309 C 154.723 280.558 155.977 290.5 154.392 294.503 C 153.119 297.719 154.883 304.727 153.71 308.147 C 151.653 314.15 150.338 314.602 145.171 313.257 C 141.009 312.172 130.535 313.005 128.549 309.163 C 126.18 304.578 129.968 290.846 130.601 283.77 C 131.31 275.854 131.932 267.289 132.53 260.744 C 132.952 256.127 133.356 253.099 133.741 248.743 C 134.245 243.062 134.443 241.257 135.041 235.943 C 135.462 232.2 138.8 222.834 139.636 218.549 C 141.156 210.756 144.88 195.28 151.181 183.861 C 157.581 172.262 166.777 157.831 174.493 151.255 C 180.326 146.284 187.212 140.31 192.677 139.131 C 197.498 138.09 202.021 132.535 205.642 133.789 C 208.309 134.713 213.131 127.49 214.674 129.588 L 222.075 130.954 L 228.873 131.225 Z"/>
  <path style="fill: rgb(191, 43, 37);" d="M 232.409 82.054 C 232.409 82.054 236.38 82.975 238.913 84.27 C 241.219 85.451 243.956 90.613 244.255 90.936 C 245.423 92.198 251.169 91.871 252.16 91.72 C 253.152 91.57 260.917 87.364 260.917 87.364 L 269.046 84.262 C 269.046 84.262 274.814 79.023 278.804 78.949 C 282.795 78.875 283.355 78.28 285.304 79.834 C 287.252 81.389 289.511 83.382 289.765 85.886 C 290.004 88.247 288.944 92.234 288.944 92.234 L 282.84 100.209 L 275.926 105.525 L 267.79 113.053 L 259.254 117.038 L 250.714 122.797 L 243.395 128.113 C 243.395 128.113 238.515 131.214 238.109 131.654 C 237.701 132.097 229.571 135.642 229.571 135.642 L 219.821 135.199 L 211.702 130.326 L 204.399 121.911 L 199.533 114.382 L 194.668 106.85 L 190.614 99.323 L 186.154 92.68 L 183.725 85.59 L 181.703 78.06 L 182.118 71.863 L 188.214 69.646 L 195.527 70.088 L 202.021 75.404 L 208.11 79.834 C 208.11 79.834 214.168 85.998 216.606 85.998 C 219.044 85.998 220.699 83.82 220.699 83.82 L 226.636 81.694 L 232.409 82.054 Z"/>
  <path style="fill: rgb(29, 22, 28);" d="M 231.418 89.722 L 237.195 92.611 C 237.195 92.611 239.533 96.339 240.337 96.694 C 241.141 97.049 245.86 98.358 246.176 98.672 C 246.492 98.984 253.223 97.637 253.223 97.637 L 261.176 93.68 C 261.176 93.68 269.673 89.49 269.988 89.49 C 270.304 89.49 268.006 89.228 277.895 86.128 C 287.786 83.03 283.793 91.281 282.178 93.155 C 280.626 94.953 276.332 96.858 276.332 96.858 L 270.695 103.143 L 264.502 107.33 L 258.987 111.75 L 251.529 115.891 L 244.883 120.832 L 239.187 124.579 C 239.187 124.579 235.389 126.763 235.073 127.077 C 234.756 127.385 228.431 129.886 228.431 129.886 L 220.842 129.572 L 214.524 126.139 L 208.841 120.208 L 205.052 114.904 L 201.266 109.597 L 198.111 104.29 L 194.639 99.61 L 192.748 94.615 L 191.175 89.307 C 191.175 89.307 189.229 84.325 188.25 81.837 C 184.406 72.071 191.569 75.861 191.569 75.861 L 196.504 77.563 L 200.713 83.248 L 206.985 87.435 L 211.724 90.556 C 211.724 90.556 214.881 93.48 216.779 93.48 C 218.676 93.48 221.282 92.557 221.282 92.557 L 226.268 90.296 L 231.418 89.722 Z"/>
  <path d="M 4.754 7.573 Q 4.86 7.063 4.966 7.573 L 5.342 9.385 Q 5.448 9.895 5.236 9.895 L 4.484 9.895 Q 4.272 9.895 4.378 9.385 Z" style="fill: rgb(216, 216, 216);" transform="matrix(-0.873066, -0.487601, 0.235323, -1.013962, 191.917249, 87.825568)" bx:shape="triangle 4.272 7.063 1.176 2.832 0.5 0.18 1@829c3821"/>
  <path style="fill: rgb(216, 216, 216);" d="M 223.234 92.225 C 223.003 94.533 223.447 91.692 223.038 94.517 C 222.849 95.821 222.761 101.386 223.257 102.074 C 223.433 102.317 223.743 99.412 223.812 99.076 C 223.976 98.287 224.47 97.284 224.483 96.002 C 224.509 93.437 224.919 94.51 224.981 91.886" transform="matrix(0.986239, -0.165328, 0.165325, 0.986239, -12.952782, 38.357307)"/>
  <path style="fill: rgb(216, 216, 216);" d="M 194.645 76.965 C 193.298 78.078 193.617 77.733 193.322 79.355 C 193.187 80.105 193.347 83.317 193.841 83.711 C 194.016 83.852 194.122 83.303 194.151 83.108 C 195.43 74.311 194.17 80.139 194.495 79.409 C 195.12 78.003 195.805 78.782 195.776 77.274" transform="matrix(0.99306, 0.117607, -0.117605, 0.99306, 10.799404, -22.320089)"/>
  <path style="fill: rgb(216, 216, 216);" d="M 199.875 81.095 L 192.334 84.769 L 199.59 82.495" transform="matrix(0.652441, -0.757847, 0.757831, 0.652441, 5.309362, 177.440992)"/>
  <path style="fill: rgb(216, 216, 216);" d="M 231.482 89.722 C 231.482 89.722 230.131 101.734 229.533 105.975 C 228.936 110.214 233.347 90.636 233.347 90.636 L 231.482 89.722 Z"/>
  <path style="fill: rgb(216, 216, 216);" d="M 274.045 87.381 L 275.598 93.385 L 275.117 86.926 L 274.045 87.381 Z"/>
  <path style="fill: rgb(216, 216, 216);" d="M 210.271 88.513 C 210.271 88.513 204.217 94.665 201.669 97.098 C 198.319 100.298 210.865 90.926 210.865 90.926 L 210.271 88.513 Z" transform="matrix(0.753116, -0.657895, 0.657881, 0.753116, -11.432522, 158.031889)" bx:origin="0.383 0.62"/>
  <path style="fill: rgb(216, 216, 216);" d="M 270.095 89.392 C 270.095 89.392 271.467 94.536 270.562 92.502 C 269.547 90.226 269.177 89.686 269.177 89.686 L 270.095 89.392 Z"/>
  <path style="fill: rgb(216, 216, 216);" d="M 192.141 76.167 L 191.294 77.741 L 191.011 79.605 L 191.361 80.537 L 191.997 78.102 C 191.997 78.102 192.985 76.452 192.914 76.38 C 192.844 76.309 192.281 76.309 192.141 76.167 Z"/>
  <path style="fill: rgb(216, 216, 216);" d="M 200.016 82.614 L 199.173 81.469 L 197.973 83.546 C 197.973 83.546 197.407 86.41 197.477 86.626 C 197.547 86.839 198.888 83.975 198.888 83.975 L 200.016 82.614 Z"/>
  <path style="fill: rgb(216, 216, 216);" d="M 201.844 84.191 L 200.719 83.259 L 200.223 85.479 C 200.223 85.479 199.657 88.703 199.726 88.919 C 199.796 89.132 201.137 86.265 201.137 86.265 L 201.844 84.191 Z"/>
  <path style="fill: rgb(216, 216, 216);" d="M 204.306 85.765 L 203.11 84.907 L 202.401 88.703 C 202.401 88.703 201.342 91.925 201.412 92.141 C 201.481 92.357 203.599 87.842 203.599 87.842 L 204.306 85.765 Z"/>
  <path style="fill: rgb(216, 216, 216);" d="M 191.33 83.278 L 190.541 82.764 L 189.909 84.04 C 189.909 84.04 189.355 85.345 189.428 85.468 C 189.5 85.59 190.639 84.448 190.639 84.448 L 191.33 83.278 Z" transform="matrix(-0.815048, -0.5794, 0.579388, -0.815048, 296.802486, 262.986538)"/>
  <path style="fill: rgb(216, 216, 216);" d="M 193.584 87.38 L 192.563 86.79 L 191.739 88.258 C 191.739 88.258 191.015 89.76 191.11 89.898 C 191.203 90.039 192.678 88.473 192.678 88.473 L 193.584 87.38 Z" transform="matrix(-0.815048, -0.5794, 0.579388, -0.815048, 297.923092, 271.800106)"/>
  <path style="fill: rgb(216, 216, 216);" d="M 194.654 90.636 L 193.764 89.864 L 192.81 91.514 C 192.81 91.514 192.582 93.716 192.676 93.856 C 192.769 93.994 193.626 92.165 193.626 92.165 L 194.654 90.636 Z" transform="matrix(-0.815048, -0.5794, 0.579388, -0.815048, 298.265834, 278.939968)"/>
  <path style="fill: rgb(216, 216, 216);" d="M 194.363 93.703 L 193.692 93.201 L 193.064 94.149 C 193.064 94.149 192.926 95.361 192.98 95.438 C 193.037 95.515 193.551 94.508 193.551 94.508 L 194.363 93.703 Z" transform="matrix(-0.815048, -0.5794, 0.579388, -0.815048, 296.862789, 283.407863)"/>
  <path style="fill: rgb(216, 216, 216);" d="M 197.631 94.868 L 196.708 94.293 L 195.755 95.943 C 195.755 95.943 194.189 98.571 194.283 98.711 C 194.377 98.85 196.57 96.594 196.57 96.594 L 197.631 94.868 Z" transform="matrix(-0.815048, -0.5794, 0.579388, -0.815048, 299.753688, 288.697658)"/>
  <path style="fill: rgb(216, 216, 216);" d="M 195.573 98.259 L 195.243 97.997 L 194.907 98.744 C 194.907 98.744 195.05 99.602 195.084 99.665 C 195.118 99.728 195.21 98.966 195.21 98.966 L 195.573 98.259 Z" transform="matrix(-0.815048, -0.5794, 0.579388, -0.815048, 297.107296, 292.508419)"/>
  <path style="fill: rgb(216, 216, 216);" d="M 200.019 82.734 L 199.175 81.589 L 197.977 83.666 C 197.977 83.666 197.41 86.533 197.48 86.746 C 197.55 86.962 198.891 84.096 198.891 84.096 L 200.019 82.734 Z"/>
  <path style="fill: rgb(216, 216, 216);" d="M 211.468 90.472 L 210.273 89.61 L 209.564 93.406 C 209.564 93.406 208.505 96.631 208.574 96.848 C 208.644 97.063 210.762 92.549 210.762 92.549 L 211.468 90.472 Z"/>
  <path style="fill: rgb(216, 216, 216);" d="M 217.788 93.51 L 216.094 93.451 L 216.091 97.2 C 216.091 97.2 215.031 100.422 215.101 100.638 C 215.171 100.854 217.289 96.339 217.289 96.339 L 217.788 93.51 Z"/>
  <path style="fill: rgb(216, 216, 216);" d="M 201.882 84.12 L 200.757 83.187 L 200.262 85.41 C 200.262 85.41 199.695 88.632 199.764 88.848 C 199.835 89.064 201.175 86.197 201.175 86.197 L 201.882 84.12 Z"/>
  <path style="fill: rgb(216, 216, 216);" d="M 214.303 92.726 L 213.533 91.827 L 212.89 94.122 C 212.89 94.122 212.951 96.287 213.021 96.503 C 213.091 96.718 213.805 94.063 213.805 94.063 L 214.303 92.726 Z"/>
  <path style="fill: rgb(216, 216, 216);" d="M 237.377 92.882 L 235.456 91.729 L 235.14 96.052 C 235.14 96.052 234.913 101.072 234.982 101.288 C 235.053 101.504 236.542 96.145 236.542 96.145 L 237.377 92.882 Z"/>
  <path style="fill: rgb(216, 216, 216);" d="M 199.717 97.098 L 198.577 96.939 L 197.625 98.589 C 197.625 98.589 196.999 102.362 197.093 102.5 C 197.188 102.641 198.441 99.24 198.441 99.24 L 199.717 97.098 Z" transform="matrix(-0.815048, -0.5794, 0.579388, -0.815048, 302.328243, 295.952602)"/>
  <path style="fill: rgb(216, 216, 216);" d="M 202.337 104.544 L 201.183 104.007 L 200.036 105.924 C 200.036 105.924 200.038 107.694 200.132 107.835 C 200.227 107.974 200.947 105.988 200.947 105.988 L 202.337 104.544 Z" transform="matrix(-0.815048, -0.5794, 0.579388, -0.815048, 303.791683, 308.825466)"/>
  <path style="fill: rgb(216, 216, 216);" d="M 207.682 110.837 L 206.502 110.445 L 205.711 112.501 C 205.711 112.501 205.398 115.273 205.492 115.412 C 205.586 115.552 206.828 112.675 206.828 112.675 L 207.682 110.837 Z" transform="matrix(-0.815048, -0.5794, 0.579388, -0.815048, 309.518398, 324.66653)"/>
  <path style="fill: rgb(216, 216, 216);" d="M 214.483 112.022 L 212.759 111.762 L 212.469 115.792 C 212.469 115.792 211.998 122.311 212.093 122.451 C 212.187 122.59 213.006 116.773 213.006 116.773 L 214.483 112.022 Z" transform="matrix(-0.815048, -0.5794, 0.579388, -0.815048, 319.265559, 336.131526)"/>
  <path style="fill: rgb(216, 216, 216);" d="M 220.334 114.733 L 217.95 115.069 L 218.868 119.536 C 218.868 119.536 220.729 127.899 220.824 128.04 C 220.919 128.181 219.993 121.526 219.993 121.526 L 220.334 114.733 Z" transform="matrix(-0.815048, -0.5794, 0.579388, -0.815048, 327.8735, 347.439113)"/>
  <path style="fill: rgb(216, 216, 216);" d="M 215.154 119.069 L 213.368 118.722 L 212.843 120.975 C 212.843 120.975 213.189 124.314 213.283 124.455 C 213.377 124.593 213.96 121.15 213.96 121.15 L 215.154 119.069 Z" transform="matrix(-0.815048, -0.5794, 0.579388, -0.815048, 317.969356, 344.683345)"/>
  <path style="fill: rgb(216, 216, 216);" d="M 209.171 115.198 L 207.993 114.808 L 207.664 116.794 C 207.664 116.794 207.836 118.443 207.93 118.582 C 208.023 118.722 208.367 116.745 208.367 116.745 L 209.171 115.198 Z" transform="matrix(-0.815048, -0.5794, 0.579388, -0.815048, 310.673946, 332.570552)"/>
  <path style="fill: rgb(216, 216, 216);" d="M 205.726 106.112 L 204.61 105.809 L 203.632 107.604 C 203.632 107.604 203.008 111.377 203.1 111.517 C 203.196 111.658 204.448 108.256 204.448 108.256 L 205.726 106.112 Z" transform="matrix(-0.815048, -0.5794, 0.579388, -0.815048, 308.051631, 315.666622)"/>
  <path style="fill: rgb(216, 216, 216);" d="M 219.568 93.094 C 219.339 94.938 219.687 93.959 219.282 96.214 C 219.094 97.257 218.882 103.694 219.38 104.245 C 219.555 104.436 220.222 100.201 220.293 99.934 C 220.457 99.303 220.949 98.501 220.961 97.476 C 220.984 95.427 221.881 94.903 221.938 92.804" transform="matrix(0.986239, -0.165328, 0.165325, 0.986239, -13.254648, 37.811496)"/>
  <path style="fill: rgb(216, 216, 216);" d="M 228.83 90.024 L 226.161 90.214 L 226.343 93.614 C 226.343 93.614 226.103 108.891 226.174 109.107 C 226.243 109.323 227.824 97.322 227.824 97.322 L 228.83 90.024 Z"/>
  <path style="fill: rgb(216, 216, 216);" d="M 249.631 98.395 L 247.746 98.64 L 247.751 104.505 C 247.751 104.505 246.691 107.727 246.761 107.944 C 246.831 108.159 248.948 103.645 248.948 103.645 L 249.631 98.395 Z"/>
  <path style="fill: rgb(216, 216, 216);" d="M 230.497 89.791 L 229.615 90.083 L 229.416 93.496 C 229.416 93.496 229.372 97.869 229.442 98.085 C 229.512 98.301 230.17 93.598 230.17 93.598 L 230.497 89.791 Z"/>
  <path style="fill: rgb(216, 216, 216);" d="M 239.471 95.929 L 238.597 94.759 L 237.343 99.225 C 237.343 99.225 236.724 103.794 236.795 104.011 C 236.865 104.224 237.968 100.288 237.968 100.288 L 239.471 95.929 Z"/>
  <path style="fill: rgb(216, 216, 216);" d="M 223.234 92.225 C 223.003 94.533 223.447 91.692 223.038 94.517 C 222.849 95.821 222.761 101.386 223.257 102.074 C 223.433 102.317 223.743 99.412 223.812 99.076 C 223.976 98.287 224.47 97.284 224.483 96.002 C 224.509 93.437 224.919 94.51 224.981 91.886" transform="matrix(0.986239, -0.165328, 0.165325, 0.986239, -12.952782, 38.357307)"/>
  <path style="fill: rgb(216, 216, 216);" d="M 223.247 91.91 C 223.015 94.216 223.405 91.693 222.996 94.521 C 222.808 95.824 222.719 101.391 223.216 102.079 C 223.391 102.322 223.7 99.417 223.77 99.079 C 223.936 98.29 224.43 97.286 224.442 96.004 C 224.466 93.443 224.879 94.023 224.941 91.394" transform="matrix(0.986239, -0.165328, 0.165325, 0.986239, -12.913087, 38.347217)"/>
  <path style="fill: rgb(216, 216, 216);" d="M 242.306 97.251 L 240.438 96.795 L 240.512 100.627 C 240.512 100.627 239.701 106.8 239.771 107.017 C 239.841 107.23 241.137 101.691 241.137 101.691 L 242.306 97.251 Z"/>
  <path style="fill: rgb(216, 216, 216);" d="M 244.77 98.178 L 243.345 98.003 L 243.455 99.619 C 243.455 99.619 243.663 101.542 243.734 101.633 C 243.804 101.72 244.145 99.61 244.145 99.61 L 244.77 98.178 Z"/>
  <path style="fill: rgb(216, 216, 216);" d="M 256.901 95.814 L 255.158 96.721 L 255.393 99.728 C 255.393 99.728 254.583 105.901 254.653 106.117 C 254.722 106.333 256.018 100.794 256.018 100.794 L 256.901 95.814 Z"/>
  <path style="fill: rgb(216, 216, 216);" d="M 256.901 95.814 L 255.158 96.721 L 255.393 99.728 C 255.393 99.728 254.583 105.901 254.653 106.117 C 254.722 106.333 256.018 100.794 256.018 100.794 L 256.901 95.814 Z"/>
  <path style="fill: rgb(216, 216, 216);" d="M 246.688 101.816 L 245.591 101.537 L 246.144 100.198 C 246.144 100.198 246.695 98.634 246.758 98.547 C 246.821 98.457 246.491 100.749 246.491 100.749 L 246.688 101.816 Z" transform="matrix(-1, 0, 0, -1, 492.356988, 200.36041)"/>
  <path style="fill: rgb(216, 216, 216);" d="M 265.098 91.712 L 263.373 92.578 L 263.952 94.805 C 263.952 94.805 263.775 98.517 263.845 98.733 C 263.915 98.949 264.577 95.779 264.577 95.779 L 265.098 91.712 Z"/>
  <path style="fill: rgb(216, 216, 216);" d="M 259.632 94.401 L 261.186 100.406 L 260.703 93.948 L 259.632 94.401 Z"/>
  <path style="fill: rgb(216, 216, 216);" d="M 251.452 98.129 L 252.359 103.048 L 252.687 97.783 L 251.452 98.129 Z"/>
  <path style="fill: rgb(216, 216, 216);" d="M 266.483 91.108 L 268.038 97.112 L 267.555 90.654 L 266.483 91.108 Z"/>
  <path style="fill: rgb(216, 216, 216);" d="M 223.581 116.387 L 220.884 117.84 L 223.21 122.427 C 223.21 122.427 227.926 129.992 228.021 130.133 C 228.115 130.271 225.5 124.036 225.5 124.036 L 223.581 116.387 Z" transform="matrix(-0.815048, -0.5794, 0.579388, -0.815048, 335.978175, 353.773341)"/>
  <path style="fill: rgb(216, 216, 216);" d="M 235.257 115.547 L 232.548 117.007 L 235.167 121.55 C 235.167 121.55 237.343 126.816 237.434 126.959 C 237.525 127.098 235.854 119.546 235.854 119.546 L 235.257 115.547 Z" transform="matrix(-0.995961, 0.089784, -0.089782, -0.995961, 479.922967, 220.919583)"/>
  <path style="fill: rgb(216, 216, 216);" d="M 232.033 116.151 L 229.033 116.851 L 230.361 121.644 C 230.361 121.644 231.181 128.894 231.273 129.036 C 231.363 129.178 231.755 122.815 231.755 122.815 L 232.033 116.151 Z" transform="matrix(-0.995961, 0.089784, -0.089782, -0.995961, 471.141778, 223.99603)"/>
  <path style="fill: rgb(216, 216, 216);" d="M 221.723 122.229 L 219.882 121.797 L 219.878 124.78 C 219.878 124.78 220.434 128.123 220.537 128.264 C 220.64 128.404 221.008 124.957 221.008 124.957 L 221.723 122.229 Z" transform="matrix(-0.931664, -0.363326, 0.363318, -0.931664, 379.974726, 322.07809)" bx:origin="0.216 0.542"/>
  <path style="fill: rgb(216, 216, 216);" d="M 236.301 120.344 L 235.739 121.753 L 238.966 122.999 C 238.966 122.999 241.488 122.978 241.582 123.119 C 241.676 123.259 238.786 122.014 238.786 122.014 L 236.301 120.344 Z" transform="matrix(-0.815048, -0.5794, 0.579388, -0.815048, 362.649317, 359.238978)"/>
  <path style="fill: rgb(216, 216, 216);" d="M 238.915 116.013 L 238.172 117.325 L 241.968 119.06 C 241.968 119.06 245.136 121.044 245.232 121.184 C 245.325 121.323 242.187 118.017 242.187 118.017 L 238.915 116.013 Z" transform="matrix(-0.815048, -0.5794, 0.579388, -0.815048, 369.986659, 355.308558)"/>
  <path style="fill: rgb(216, 216, 216);" d="M 245.594 115.472 L 244.112 115.463 L 243.856 117.462 C 243.856 117.462 243.934 120.233 244.047 120.372 C 244.161 120.513 245.001 117.638 245.001 117.638 L 245.594 115.472 Z" transform="matrix(-0.837317, 0.546724, -0.546712, -0.837317, 514.105645, 82.859496)"/>
  <path style="fill: rgb(216, 216, 216);" d="M 277.932 86.019 C 277.932 86.019 279.303 91.163 278.398 89.13 C 277.383 86.853 277.013 86.314 277.013 86.314 L 277.932 86.019 Z"/>
  <path style="fill: rgb(216, 216, 216);" d="M 272.511 88.042 L 271.029 88.646 L 271.619 90.611 C 271.619 90.611 272.848 92.16 272.957 92.239 C 273.067 92.321 272.522 89.966 272.522 89.966 L 272.511 88.042 Z"/>
  <path style="fill: rgb(216, 216, 216);" d="M 258.908 94.697 L 257.573 95.45 L 258.016 97.265 C 258.016 97.265 259.245 98.815 259.356 98.897 C 259.465 98.976 258.92 96.623 258.92 96.623 L 258.908 94.697 Z"/>
  <path style="fill: rgb(216, 216, 216);" d="M 265.709 100.098 L 265.245 100.941 L 267.727 101.709 C 267.727 101.709 270.701 103.371 270.76 103.462 C 270.819 103.553 268.968 101.707 268.968 101.707 L 265.709 100.098 Z" transform="matrix(-0.815048, -0.5794, 0.579388, -0.815048, 427.467462, 340.019587)"/>
  <path style="fill: rgb(216, 216, 216);" d="M 259.348 104.928 L 258.893 106.041 L 261.926 107.328 C 261.926 107.328 264.507 107.175 264.567 107.266 C 264.624 107.354 261.615 106.152 261.615 106.152 L 259.348 104.928 Z" transform="matrix(-0.815048, -0.5794, 0.579388, -0.815048, 413.563806, 344.274012)"/>
  <path style="fill: rgb(216, 216, 216);" d="M 243.935 113.526 L 243.805 114.591 L 246.177 115.706 C 246.177 115.706 250.087 116.794 250.146 116.884 C 250.206 116.975 246.315 115.036 246.315 115.036 L 243.935 113.526 Z" transform="matrix(-0.815048, -0.5794, 0.579388, -0.815048, 381.523585, 352.203212)"/>
  <path style="fill: rgb(216, 216, 216);" d="M 248.037 114.53 L 247.573 115.374 L 249.527 116.155 C 249.527 116.155 250.959 116.277 251.017 116.366 C 251.076 116.457 249.271 115.307 249.271 115.307 L 248.037 114.53 Z" transform="matrix(-0.815048, -0.5794, 0.579388, -0.815048, 385.59289, 353.990229)"/>
  <path stroke-width="0" d="M 316.752 350.228 C 319.638 350.627 326.134 350.429 330.155 349.692 C 333.779 349.028 338.438 347.38 339.939 346.341 C 340.676 345.831 340.313 345.435 340.877 344.867 C 341.19 344.551 341.718 344.259 342.319 343.942 C 342.804 343.796 343.333 343.526 343.883 343.074 C 344.556 342.651 345.177 342.152 345.568 341.516 C 345.721 341.267 345.857 340.99 345.978 340.69 C 349.004 336.643 350.96 334.512 352.65 331.645 C 353.855 329.6 356.706 323.572 357.05 322.138 C 357.372 320.802 357.382 319.005 357.05 318.117 C 356.815 317.487 355.51 317.01 354.857 316.77 C 353.889 316.415 351.103 316.08 349.595 316.629 C 348.275 317.11 344.14 320.725 342.98 321.895 C 342.834 319.577 343.254 316.259 342.592 314.484 C 341.436 311.381 342.406 307.788 340.341 305.998 C 338.551 304.446 336.3 303.505 334.444 303.05 C 332.843 302.657 331.257 302.709 329.887 303.05 C 328.592 303.371 324.764 304.994 323.158 305.49 C 320.855 306.202 318.666 306.137 316.893 306.83 C 315.935 307.205 313.174 306.89 312.324 307.184 C 311.014 307.636 310.444 307.382 308.979 307.875 C 307.9 308.237 307.312 308.727 306.7 309.617 C 305.931 310.736 305.375 312.649 305.092 314.442 C 304.776 316.445 304.826 319.136 305.092 321.144 C 305.328 322.931 305.074 324.119 305.163 325.546 C 305.238 326.747 305.632 327.857 305.896 329.185 C 305.982 329.62 305.624 330.099 305.901 330.611 C 305.797 330.785 305.991 331.531 305.935 331.719 C 305.678 332.582 305.963 333.123 306.217 334.372 C 306.547 335.995 308.062 339.073 308.496 340.135 C 308.707 340.651 308.673 340.623 308.898 341.073 C 309.242 341.761 310.092 343.609 310.675 344.416 C 310.744 344.937 310.843 345.408 310.989 345.805 C 311.539 347.294 312.3 348.15 313.267 348.888 C 314.225 349.618 315.022 349.989 316.752 350.228 Z" style="stroke-width: 2px; fill: rgb(255, 242, 0);" transform="matrix(-0.980799, 0.195024, -0.19502, -0.980799, 719.505361, 582.364128)"/>
  <path style="fill: rgb(216, 216, 216);" d="M 255.754 107.71 L 255.241 108.866 L 257.809 109.752 C 257.809 109.752 261.176 109.317 261.236 109.407 C 261.295 109.498 257.235 108.584 257.235 108.584 L 255.754 107.71 Z" transform="matrix(-0.815048, -0.5794, 0.579388, -0.815048, 405.718287, 346.975551)"/>
  <path style="fill: rgb(216, 216, 216);" d="M 247.828 111.344 L 247.585 112.121 L 249.959 113.241 C 249.959 113.241 253.399 114.298 253.458 114.388 C 253.517 114.479 250.096 112.569 250.096 112.569 L 247.828 111.344 Z" transform="matrix(-0.815048, -0.5794, 0.579388, -0.815048, 389.314997, 350.012446)"/>
  <path style="fill: rgb(216, 216, 216);" d="M 252.56 109.921 L 251.95 110.687 L 254.597 112.064 C 254.597 112.064 256.579 113.343 256.635 113.431 C 256.696 113.523 254.734 111.393 254.734 111.393 L 252.56 109.921 Z" transform="matrix(-0.815048, -0.5794, 0.579388, -0.815048, 396.849665, 350.03741)"/>
  <path style="fill: rgb(216, 216, 216);" d="M 262.161 102.75 L 261.696 103.595 L 264.07 104.712 C 264.07 104.712 267.15 105.388 267.208 105.479 C 267.268 105.57 263.214 103.653 263.214 103.653 L 262.161 102.75 Z" transform="matrix(-0.815048, -0.5794, 0.579388, -0.815048, 419.669977, 342.199367)"/>
  <path style="fill: rgb(216, 216, 216);" d="M 255.5 110.67 L 255.036 111.517 L 256.245 112.004 C 256.245 112.004 257.474 112.726 257.533 112.817 C 257.593 112.907 256.802 111.67 256.802 111.67 L 255.5 110.67 Z" transform="matrix(-0.815048, -0.5794, 0.579388, -0.815048, 400.427271, 351.316249)"/>
  <path style="fill: rgb(216, 216, 216);" d="M 268.651 98.164 L 268.477 99.167 L 271.476 100.659 C 271.476 100.659 273.297 100.322 273.356 100.41 C 273.415 100.501 270.987 99.611 270.987 99.611 L 268.651 98.164 Z" transform="matrix(-0.815048, -0.5794, 0.579388, -0.815048, 434.129449, 337.405971)"/>
  <path stroke-width="0" d="M 167.502 445.834 C 170.623 445.347 177.283 445.588 181.198 446.489 C 184.728 447.3 188.999 449.313 190.205 450.581 C 190.796 451.204 190.288 451.689 190.681 452.382 C 190.899 452.769 191.349 453.125 191.864 453.511 C 192.317 453.69 192.775 454.02 193.192 454.572 C 193.748 455.088 194.223 455.698 194.414 456.475 C 194.49 456.779 194.537 457.118 194.564 457.483 C 196.34 462.427 197.65 465.03 198.439 468.531 C 199.001 471.028 199.934 478.391 199.81 480.142 C 199.695 481.775 199.104 483.969 198.462 485.054 C 198.007 485.823 196.498 486.406 195.741 486.699 C 194.619 487.133 191.623 487.543 190.246 486.872 C 189.042 486.283 185.972 481.869 185.163 480.441 C 184.235 483.271 183.558 487.323 182.278 489.491 C 180.042 493.281 179.842 497.67 177.106 499.856 C 174.732 501.752 172.087 502.901 170.013 503.457 C 168.224 503.937 166.6 503.874 165.296 503.457 C 164.062 503.065 159.645 503.194 158.148 502.588 C 156.004 501.718 154.955 501.144 153.35 500.297 C 152.484 499.839 150.518 498.112 149.737 497.753 C 148.533 497.202 150.554 496.616 149.202 496.015 C 148.206 495.572 147.933 493.3 147.598 492.211 C 147.178 490.845 144.569 490.447 144.878 488.257 C 145.221 485.811 144.741 483.809 145.689 481.357 C 146.531 479.175 146.666 477.723 147.237 475.98 C 147.717 474.514 148.497 473.157 149.215 471.536 C 149.45 471.004 149.24 470.42 149.697 469.794 C 149.648 469.582 150.098 468.671 150.103 468.441 C 150.127 467.386 150.603 466.726 151.285 465.201 C 152.17 463.218 154.771 459.458 155.574 458.162 C 155.965 457.531 155.922 457.565 156.306 457.016 C 156.891 456.176 158.391 453.918 159.265 452.932 C 159.511 452.297 159.771 451.722 160.054 451.236 C 161.123 449.418 162.198 448.372 163.446 447.471 C 164.682 446.58 165.632 446.126 167.502 445.834 Z" style="stroke-width: 2px; fill: rgb(255, 242, 0);" transform="matrix(0.884263, 0.466993, -0.466983, 0.884263, 241.618267, -25.541158)"/>
  <path style="fill: rgb(216, 216, 216);" d="M 271.63 94.965 L 271.422 96.172 L 273.41 96.747 C 273.41 96.747 276.217 97.164 276.276 97.254 C 276.334 97.342 274.196 96.61 274.196 96.61 L 271.63 94.965 Z" transform="matrix(-0.815048, -0.5794, 0.579388, -0.815048, 441.363183, 333.118465)"/>
  <path stroke-width="0" d="M 291.302 505.135 C 294.306 505.636 300.744 505.388 304.547 504.462 C 307.975 503.629 312.146 501.559 313.34 500.255 C 313.926 499.615 313.446 499.117 313.842 498.404 C 314.061 498.007 314.503 497.641 315.011 497.243 C 315.452 497.06 315.902 496.721 316.318 496.153 C 316.866 495.622 317.339 494.995 317.542 494.197 C 317.621 493.884 317.675 493.536 317.708 493.16 C 319.537 488.079 320.863 485.403 321.705 481.803 C 322.305 479.236 323.374 471.667 323.294 469.867 C 323.22 468.189 322.699 465.933 322.104 464.818 C 321.683 464.027 320.237 463.428 319.513 463.127 C 318.44 462.681 315.555 462.26 314.209 462.95 C 313.032 463.554 309.966 468.092 309.152 469.561 C 308.32 466.651 307.759 462.485 306.572 460.257 C 304.499 456.361 304.406 451.849 301.812 449.602 C 299.563 447.653 297.033 446.472 295.043 445.9 C 293.326 445.407 291.755 445.472 290.486 445.9 C 289.286 446.303 285.938 448.341 284.478 448.964 C 282.386 449.858 280.178 449.776 278.609 450.646 C 277.762 451.117 274.908 450.722 274.145 451.091 C 272.969 451.658 272.324 451.34 271.005 451.959 C 270.033 452.413 269.589 453.028 269.241 454.146 C 268.803 455.551 268.812 457.953 269.06 460.204 C 269.336 462.719 270.182 466.097 271.042 468.619 C 271.806 470.862 271.903 472.354 272.414 474.146 C 272.844 475.653 273.567 477.047 274.224 478.715 C 274.438 479.261 274.222 479.862 274.65 480.505 C 274.598 480.723 275.012 481.66 275.012 481.896 C 275.01 482.98 275.455 483.659 276.078 485.227 C 276.888 487.265 279.314 491.13 280.062 492.463 C 280.425 493.111 280.383 493.076 280.741 493.641 C 281.288 494.504 282.685 496.825 283.507 497.838 C 283.73 498.492 283.968 499.083 284.231 499.582 C 285.222 501.451 286.236 502.526 287.421 503.453 C 288.595 504.369 289.502 504.835 291.302 505.135 Z" style="stroke-width: 2px; fill: rgb(255, 242, 0);" transform="matrix(-0.898464, 0.439053, -0.439044, -0.898464, 770.875844, 772.664784)"/>
  <path stroke-width="0" d="M 291.302 505.135 C 294.306 505.636 300.744 505.388 304.547 504.462 C 307.975 503.629 312.146 501.559 313.34 500.255 C 313.926 499.615 313.446 499.117 313.842 498.404 C 314.061 498.007 314.503 497.641 315.011 497.243 C 315.452 497.06 315.902 496.721 316.318 496.153 C 316.866 495.622 317.339 494.995 317.542 494.197 C 317.621 493.884 317.675 493.536 317.708 493.16 C 319.537 488.079 320.863 485.403 321.705 481.803 C 322.305 479.236 323.374 471.667 323.294 469.867 C 323.22 468.189 322.699 465.933 322.104 464.818 C 321.683 464.027 320.237 463.428 319.513 463.127 C 318.44 462.681 315.555 462.26 314.209 462.95 C 313.032 463.554 309.966 468.092 309.152 469.561 C 308.32 466.651 307.759 462.485 306.572 460.257 C 304.499 456.361 304.406 451.849 301.812 449.602 C 299.563 447.653 297.033 446.472 295.043 445.9 C 293.326 445.407 291.755 445.472 290.486 445.9 C 289.286 446.303 285.938 448.341 284.478 448.964 C 282.386 449.858 280.178 449.776 278.609 450.646 C 277.762 451.117 274.908 450.722 274.145 451.091 C 272.969 451.658 272.324 451.34 271.005 451.959 C 270.033 452.413 269.589 453.028 269.241 454.146 C 268.803 455.551 268.812 457.953 269.06 460.204 C 269.336 462.719 270.182 466.097 271.042 468.619 C 271.806 470.862 271.903 472.354 272.414 474.146 C 272.844 475.653 273.567 477.047 274.224 478.715 C 274.438 479.261 274.222 479.862 274.65 480.505 C 274.598 480.723 275.012 481.66 275.012 481.896 C 275.01 482.98 275.455 483.659 276.078 485.227 C 276.888 487.265 279.314 491.13 280.062 492.463 C 280.425 493.111 280.383 493.076 280.741 493.641 C 281.288 494.504 282.685 496.825 283.507 497.838 C 283.73 498.492 283.968 499.083 284.231 499.582 C 285.222 501.451 286.236 502.526 287.421 503.453 C 288.595 504.369 289.502 504.835 291.302 505.135 Z" style="stroke-width: 2px; fill: rgb(255, 242, 0);" transform="matrix(-0.898464, 0.439053, -0.439044, -0.898464, 770.875844, 772.664784)"/>
  <path style="fill: rgb(216, 216, 216);" d="M 277.477 93.456 L 277.128 94.198 L 278.203 94.354 C 278.203 94.354 279.621 95.109 279.645 95.155 C 279.671 95.206 278.537 94.283 278.537 94.283 L 277.477 93.456 Z" transform="matrix(-0.815048, -0.5794, 0.579388, -0.815048, 450.645013, 332.468135)"/>
  <path style="fill: rgb(216, 216, 216);" d="M 268.251 100.498 L 267.949 101.317 L 270.09 102.235 C 270.09 102.235 271.522 102.358 271.581 102.449 C 271.639 102.537 269.835 101.389 269.835 101.389 L 268.251 100.498 Z" transform="matrix(-0.815048, -0.5794, 0.579388, -0.815048, 430.843622, 340.485896)"/>
  <path d="M 214.632 63.07 C 216.51 62.684 218.292 62.558 219.896 63.07 C 221.473 63.573 223.135 64.852 224.192 66.065 C 225.14 67.153 225.673 68.334 226.131 69.848 C 226.662 71.607 227.113 74.133 226.962 76.153 C 226.815 78.122 226.033 80.436 225.299 81.827 C 224.719 82.93 224.046 83.544 223.221 84.191 C 222.352 84.873 221.429 85.438 220.173 85.767 C 218.607 86.178 216.126 86.333 214.355 86.083 C 212.737 85.854 211.271 85.356 209.921 84.506 C 208.541 83.637 207.102 82.154 206.181 80.882 C 205.38 79.774 204.845 78.692 204.518 77.414 C 204.176 76.077 203.895 74.64 204.242 73 C 204.682 70.91 205.991 67.56 207.704 65.907 C 209.441 64.232 212.484 63.511 214.632 63.07 Z" style="fill: rgb(29, 22, 28); stroke: rgb(223, 221, 221); stroke-width: 3px;"/>
  <ellipse style="fill: rgb(216, 216, 216); stroke: rgb(223, 221, 221); stroke-width: 3px;" cx="214.474" cy="74.683" rx="1.26" ry="1.719"/>
  <path d="M 247.712 68.495 C 249.589 68.109 251.371 67.983 252.975 68.495 C 254.552 68.998 256.214 70.277 257.271 71.49 C 258.219 72.578 258.753 73.759 259.21 75.273 C 259.742 77.032 260.193 79.558 260.041 81.578 C 259.894 83.547 259.112 85.861 258.379 87.252 C 257.798 88.355 257.125 88.969 256.301 89.616 C 255.432 90.298 254.509 90.863 253.252 91.192 C 251.686 91.603 249.206 91.758 247.434 91.508 C 245.816 91.279 244.351 90.781 243.001 89.931 C 241.62 89.062 240.181 87.579 239.26 86.307 C 238.459 85.199 237.924 84.117 237.597 82.839 C 237.255 81.502 236.974 80.065 237.321 78.425 C 237.762 76.335 239.07 72.985 240.784 71.332 C 242.52 69.657 245.563 68.936 247.712 68.495 Z" style="fill: rgb(29, 22, 28); stroke: rgb(223, 221, 221); stroke-width: 3px;"/>
  <ellipse style="fill: rgb(216, 216, 216); stroke: rgb(223, 221, 221); stroke-width: 3px;" cx="248.863" cy="80.108" rx="1.588" ry="1.719"/>
  <path stroke-width="0" d="M 205.633 250.968 C 208.467 250.553 212.333 250.648 215.238 251.928 C 218.286 253.272 221.251 255.185 223.402 259.132 C 226.519 264.851 219.951 278.38 219.56 286.026 C 219.236 292.38 215.487 317.651 213.797 325.93 C 210.852 340.363 210.069 356.56 209.694 378.495 C 209.343 399.001 204.931 391.686 204.804 409.142 C 204.721 420.453 201.831 423.145 201.584 435.549 C 201.498 439.863 202.301 451.2 199.687 468.323 C 198.93 473.28 190.713 463.323 185.407 461.669 C 180.391 460.106 171.818 458.362 170.493 452.651 C 169.206 447.102 173.613 441.54 174.519 435.094 C 176.642 419.992 178.172 409.32 179.22 401.372 C 180.688 390.237 180.506 386.161 182.014 371.161 C 184.65 344.93 185.188 336.478 187.427 320.604 C 189.659 304.781 193.594 285.465 192.496 276.234 C 191.288 266.078 189.908 265.952 191.226 264.415 C 191.915 263.61 199.849 255.083 200.524 254.243 C 201.852 252.592 196.524 255.858 198.91 253.849 C 200.932 252.147 203.097 251.339 205.633 250.968 Z M 256.452 251.841 C 259.181 251.491 263.908 251.459 267.017 252.802 C 270.16 254.159 269.457 256.783 271.689 260.005 C 274.26 263.718 269.498 274.981 270.649 281.642 C 272.366 291.586 271.475 295.48 273.086 305.322 C 274.147 311.808 274.362 324.895 274.875 328.855 C 275.777 335.815 277.446 345.648 277.626 349.855 C 277.958 357.633 275.618 354.197 279.089 366.164 C 281.521 374.548 278.644 366.711 280.788 383.372 C 283.471 404.219 283.651 401.546 283.651 401.546 C 283.651 401.546 285.402 411.41 285.148 417.056 C 284.826 424.226 287.59 424.992 288.155 431.389 C 288.818 438.895 291.894 434.569 293.536 442.037 C 294.676 447.223 296.726 444.065 298.658 450.713 C 299.759 454.502 290.077 455.985 286.223 457.352 C 282.634 458.625 269.639 472.418 269.997 467.549 C 270.478 461.014 267.549 447.477 266.722 440.217 C 265.852 432.579 263.496 427.798 263.568 422.328 C 263.627 417.865 262.068 406.778 261.91 402.944 C 261.751 399.094 258.529 387.55 258.242 383.559 C 256.609 360.882 254.853 359.827 254.313 354.396 C 253.408 345.303 254.985 339.831 250.908 323.921 C 245.642 303.376 247.564 285.093 245.145 270.483 C 243.713 261.835 248.85 256.412 251.65 253.762 C 253.339 252.163 254.405 252.104 256.452 251.841 Z" style="stroke-width: 2px; fill: rgb(243, 137, 192);"/>
  <path stroke-width="0" d="M 129.494 307.647 C 132.38 307.248 138.876 307.446 142.897 308.183 C 146.521 308.847 151.18 310.495 152.681 311.534 C 153.418 312.044 153.055 312.44 153.619 313.008 C 153.932 313.324 154.46 313.616 155.061 313.933 C 155.546 314.079 156.075 314.349 156.625 314.801 C 157.298 315.224 157.919 315.723 158.31 316.359 C 158.463 316.608 158.599 316.885 158.72 317.185 C 161.746 321.232 163.702 323.363 165.392 326.23 C 166.597 328.275 169.448 334.303 169.792 335.737 C 170.114 337.073 170.124 338.87 169.792 339.758 C 169.557 340.388 168.252 340.865 167.599 341.105 C 166.631 341.46 163.845 341.795 162.337 341.246 C 161.017 340.765 156.882 337.15 155.722 335.98 C 155.576 338.298 155.996 341.616 155.334 343.391 C 154.178 346.494 155.148 350.087 153.083 351.877 C 151.293 353.429 149.042 354.37 147.186 354.825 C 145.585 355.218 143.999 355.166 142.629 354.825 C 141.334 354.504 137.506 352.881 135.9 352.385 C 133.597 351.673 131.408 351.738 129.635 351.045 C 128.677 350.67 125.916 350.985 125.066 350.691 C 123.756 350.239 123.186 350.493 121.721 350 C 120.642 349.638 120.054 349.148 119.442 348.258 C 118.673 347.139 118.117 345.226 117.834 343.433 C 117.518 341.43 117.568 338.739 117.834 336.731 C 118.07 334.944 117.816 333.756 117.905 332.329 C 117.98 331.128 118.374 330.018 118.638 328.69 C 118.724 328.255 118.366 327.776 118.643 327.264 C 118.539 327.09 118.733 326.344 118.677 326.156 C 118.42 325.293 118.705 324.752 118.959 323.503 C 119.289 321.88 120.804 318.802 121.238 317.74 C 121.449 317.224 121.415 317.252 121.64 316.802 C 121.984 316.114 122.834 314.266 123.417 313.459 C 123.486 312.938 123.585 312.467 123.731 312.07 C 124.281 310.581 125.042 309.725 126.009 308.987 C 126.967 308.257 127.764 307.886 129.494 307.647 Z" style="stroke-width: 2px; fill: rgb(255, 242, 0);"/>
</svg>